<?xml version="1.0" standalone="no"?>
<!DOCTYPE svg PUBLIC "-//W3C//DTD SVG 20010904//EN"
 "http://www.w3.org/TR/2001/REC-SVG-20010904/DTD/svg10.dtd">
<svg version="1.0" xmlns="http://www.w3.org/2000/svg"
 width="1920.000000pt" height="1080.000000pt" viewBox="0 0 300.000000 300.000000"
 preserveAspectRatio="xMidYMid meet">
<metadata>
Created by potrace 1.10, written by Peter Selinger 2001-2011
</metadata>
<g transform="translate(0.000000,300.000000) scale(0.100000,-0.100000)"
fill="#000000" stroke="none">
<path d="M1260 2470 c-25 -4 -67 -10 -95 -13 -185 -23 -580 -137 -634 -183
l-26 -22 0 -179 c0 -98 4 -186 9 -195 6 -13 3 -19 -10 -24 -77 -24 -158 -61
-170 -78 -17 -25 -18 -88 -2 -104 16 -16 44 -15 72 3 26 18 62 20 123 10 30
-5 50 -3 75 10 51 26 124 30 190 10 56 -16 59 -16 86 4 22 15 41 19 92 17 36
-2 78 -8 93 -14 16 -7 50 -12 77 -12 39 0 52 -4 60 -20 9 -17 8 -20 -8 -20
-10 0 -24 6 -31 13 -9 8 -12 8 -7 0 4 -8 -7 -10 -43 -6 -34 3 -59 0 -80 -10
-26 -13 -35 -13 -71 -1 -61 21 -113 20 -158 -4 -35 -18 -41 -19 -55 -5 -18 18
-99 25 -138 11 -19 -7 -31 -19 -35 -36 -3 -15 -10 -43 -14 -62 -5 -19 -11 -60
-14 -90 -4 -30 -9 -69 -12 -86 -3 -18 -1 -42 6 -54 10 -19 19 -21 83 -20 40 1
117 1 172 0 111 -2 125 6 125 66 0 35 31 63 63 56 13 -3 17 -14 17 -52 0 -58
11 -68 78 -72 29 -2 51 -5 49 -8 -17 -29 -50 -111 -54 -135 -7 -42 26 -73 62
-57 17 8 33 8 55 0 26 -9 34 -7 51 8 25 22 22 59 -10 125 -12 23 -21 48 -21
55 0 11 97 26 113 17 4 -3 1 -16 -7 -29 -10 -15 -16 -46 -16 -87 0 -80 14 -95
86 -93 71 2 84 15 79 79 -2 29 -4 58 -5 65 0 6 -11 22 -25 34 -16 13 -21 25
-16 32 16 20 15 50 -3 123 -10 40 -15 81 -11 90 17 44 17 104 0 123 -15 17
-15 19 2 24 21 7 144 6 155 -1 4 -2 -1 -12 -11 -22 -12 -12 -22 -47 -30 -102
-19 -123 -20 -131 -27 -161 -8 -41 3 -65 37 -77 17 -6 29 -14 27 -18 -24 -49
-51 -113 -55 -135 -7 -37 36 -66 73 -49 18 8 31 8 45 0 28 -15 58 -2 66 29 8
32 -21 118 -50 149 -26 29 -19 35 29 25 22 -5 55 -4 77 1 21 5 40 7 44 4 3 -4
-8 -22 -26 -42 -42 -48 -43 -102 -3 -144 56 -61 157 -37 154 35 -3 52 -10 99
-17 115 -5 13 2 20 28 28 18 6 44 23 55 36 28 32 35 31 49 -4 12 -33 8 -41
-17 -41 -34 0 -50 -33 -50 -102 0 -53 4 -68 20 -83 12 -10 19 -24 18 -31 -2
-10 -140 -139 -184 -173 -50 -39 -134 -99 -154 -110 -70 -41 -161 -81 -183
-81 -31 0 -90 24 -80 33 3 4 -1 7 -10 7 -18 0 -130 59 -135 72 -2 4 -10 8 -18
8 -8 0 -14 4 -14 8 0 4 -13 15 -29 25 -43 25 -207 163 -225 189 -15 21 -14 23
14 34 27 12 65 65 54 76 -4 5 -11 55 -13 93 -1 6 -13 18 -28 26 -36 20 -101 8
-125 -25 -21 -28 -25 -84 -9 -114 14 -26 7 -42 -18 -42 -21 0 -51 -30 -51 -52
0 -19 59 -99 132 -182 90 -101 279 -241 393 -290 22 -10 49 -21 60 -26 79 -34
93 -35 167 -10 181 62 396 220 539 398 86 107 90 118 54 150 -28 24 -30 31
-31 99 -1 40 -7 79 -13 87 -13 16 -4 26 24 26 25 0 45 18 45 40 0 9 5 21 11
27 9 9 17 4 33 -20 12 -17 33 -37 46 -44 33 -17 93 -16 133 1 54 22 66 51 68
164 1 102 -9 142 -47 173 -23 19 -145 19 -167 0 -13 -10 -20 -11 -30 -2 -7 6
-45 13 -83 17 -38 4 -70 8 -72 9 -2 2 30 21 71 44 94 52 143 55 208 12 24 -16
54 -39 65 -50 12 -11 24 -17 28 -14 3 3 25 5 50 5 25 -1 48 3 51 8 4 6 24 10
45 10 39 0 70 20 70 45 0 21 -47 49 -135 80 -44 16 -83 31 -88 35 -4 3 -1 20
7 36 11 22 14 66 12 189 -2 88 -7 168 -11 177 -22 52 -324 156 -565 193 -14 2
-59 9 -100 15 -90 14 -436 21 -500 10z m463 -45 c217 -25 410 -73 600 -147
l77 -31 0 -183 0 -184 -40 0 -40 0 0 164 c0 162 0 164 -22 169 -13 2 -96 23
-185 46 -281 72 -431 94 -643 95 -150 0 -209 -4 -311 -22 -139 -25 -316 -68
-446 -108 l-84 -27 2 -155 2 -155 -47 -1 -46 -1 0 182 0 181 82 30 c234 84
408 125 663 155 81 10 324 5 438 -8z m-63 -105 c140 -23 530 -115 598 -141 21
-8 22 -13 22 -143 0 -74 3 -142 6 -151 6 -15 -5 -16 -107 -13 -79 3 -137 11
-189 26 -41 12 -107 29 -146 37 -39 8 -88 24 -110 34 -101 49 -300 51 -509 6
-161 -35 -315 -75 -348 -92 -19 -9 -57 -13 -117 -12 l-88 2 -1 144 c0 137 1
144 22 157 45 29 516 144 647 159 90 10 206 5 320 -13z m15 -365 c28 -8 95
-40 150 -72 80 -45 111 -58 155 -61 30 -3 53 -2 50 1 -3 3 -48 22 -100 42 -52
20 -106 41 -119 46 -13 5 -22 12 -19 14 2 3 71 -18 153 -45 147 -49 151 -50
274 -50 122 0 128 -1 262 -46 92 -32 136 -51 133 -59 -5 -12 -17 -11 -111 10
-13 3 -23 1 -23 -5 0 -5 7 -10 15 -10 8 0 15 -4 15 -10 0 -14 -16 -12 -52 6
l-31 16 7 -29 c7 -27 6 -26 -28 14 -89 102 -216 109 -325 18 -33 -28 -33 -28
-26 -5 l7 23 -28 -22 c-71 -54 -105 -73 -143 -78 -27 -4 -41 -2 -41 6 0 6 12
11 28 11 23 0 102 42 102 55 0 4 -465 -3 -578 -9 -63 -4 -72 -3 -61 10 22 27
4 23 -50 -11 -30 -19 -58 -32 -63 -29 -5 4 5 16 24 28 l33 21 -112 3 c-62 1
-113 6 -113 11 0 17 37 39 80 49 39 9 41 10 14 11 -17 1 -52 4 -77 7 -46 7
-46 6 -44 -22 l2 -29 -105 3 -105 4 24 -26 c29 -31 23 -31 -49 -6 -75 26 -122
24 -208 -9 -63 -25 -72 -27 -67 -12 5 16 -1 17 -52 13 -43 -3 -65 -10 -84 -28
-34 -32 -39 -30 -39 16 0 29 5 42 20 50 10 6 23 9 27 8 4 -1 22 5 38 14 29 15
111 32 210 43 52 5 237 -9 271 -21 11 -4 16 -3 11 2 -5 5 -23 14 -40 20 -29
10 -12 15 198 67 127 31 266 61 310 66 95 11 211 5 280 -14z m96 -277 l40 1
-43 -23 c-37 -20 -45 -21 -59 -10 -8 8 -22 14 -30 14 -8 1 -3 7 11 14 14 8 29
12 33 9 5 -3 27 -5 48 -5z m616 -50 c30 -15 43 -58 43 -143 0 -123 -23 -156
-110 -157 -57 0 -88 14 -100 48 -14 37 -12 194 3 224 22 44 103 58 164 28z
m-1627 -143 l26 -155 -48 0 c-47 0 -48 1 -48 30 0 23 -4 30 -20 30 -16 0 -20
-7 -20 -30 0 -29 -1 -30 -51 -30 -48 0 -51 1 -46 23 3 12 13 72 22 132 25 171
15 155 93 155 l67 0 25 -155z m226 131 c17 -24 18 -116 2 -139 -7 -9 -31 -18
-53 -20 l-40 -5 2 -61 3 -61 -50 0 -50 0 0 156 0 156 86 -3 c71 -3 88 -7 100
-23z m194 -11 c0 -33 -1 -34 -30 -28 -28 5 -30 4 -30 -26 0 -28 3 -31 30 -31
27 0 30 -3 30 -30 0 -27 -3 -30 -30 -30 -28 0 -30 -3 -30 -36 0 -34 1 -35 33
-32 30 3 32 1 35 -29 l3 -33 -83 0 -83 0 0 155 0 155 78 0 77 0 0 -35z m110 8
c0 -49 17 -59 24 -14 6 40 7 41 46 41 22 0 40 -2 40 -5 0 -3 -7 -34 -16 -69
-15 -60 -15 -66 6 -136 12 -40 24 -79 27 -86 4 -11 -6 -14 -40 -14 -45 0 -46
1 -56 38 -6 20 -11 46 -12 57 -2 31 -17 -22 -18 -62 -1 -32 -2 -33 -46 -33
-52 0 -51 -2 -31 104 12 61 11 77 -4 137 l-17 69 49 0 c46 0 48 -1 48 -27z
m430 -115 c12 -79 25 -149 27 -155 4 -9 -9 -13 -46 -13 -50 0 -51 1 -51 30 0
23 -4 30 -20 30 -16 0 -20 -7 -20 -30 0 -29 -1 -30 -50 -30 -47 0 -50 1 -45
23 5 22 45 272 45 282 0 3 31 5 69 5 l69 0 22 -142z m133 13 c2 -89 6 -125 15
-128 9 -4 12 26 12 126 l0 131 45 0 45 0 0 -132 c0 -121 -2 -134 -22 -155 -18
-19 -32 -23 -80 -23 -49 0 -63 4 -83 25 -24 23 -25 29 -25 155 l0 131 46 -3
46 -3 1 -124z m345 97 c-3 -29 -6 -33 -30 -30 l-28 3 0 -125 0 -126 -47 0 -48
0 3 125 4 125 -31 0 c-28 0 -31 3 -31 30 l0 30 106 0 105 0 -3 -32z m-1203
-353 c0 -5 -15 -11 -32 -13 -36 -4 -58 -31 -48 -61 6 -21 31 -34 46 -25 14 8
11 24 -6 24 -8 0 -15 7 -15 15 0 10 10 15 31 15 29 0 30 -2 27 -37 -3 -37 -4
-38 -45 -41 -33 -2 -44 1 -57 20 -39 55 -4 122 62 116 20 -2 37 -7 37 -13z
m211 -42 c10 -32 20 -64 22 -70 5 -18 -27 -16 -34 2 -4 8 -17 15 -30 15 -14 0
-27 -7 -30 -15 -4 -8 -14 -15 -24 -15 -16 0 -16 5 6 58 13 31 24 63 24 70 0 6
10 12 23 12 19 0 27 -10 43 -57z m212 45 c16 -16 16 -55 0 -60 -8 -3 -5 -15
11 -36 22 -32 22 -32 1 -32 -12 0 -25 10 -32 25 -6 14 -17 25 -25 25 -9 0 -11
-8 -7 -25 5 -21 3 -25 -15 -25 -19 0 -21 5 -21 70 l0 70 38 0 c21 0 43 -5 50
-12z m223 -50 c13 -35 25 -66 27 -70 2 -5 -6 -8 -17 -8 -12 0 -21 6 -21 15 0
10 -10 15 -30 15 -20 0 -30 -5 -30 -15 0 -8 -9 -15 -20 -15 -11 0 -20 1 -20 3
0 1 9 27 20 57 12 30 23 61 25 68 2 6 13 12 23 12 14 0 25 -16 43 -62z m237
50 c-3 -7 -19 -14 -36 -16 -35 -4 -57 -31 -47 -61 6 -21 31 -34 46 -25 14 8
11 24 -6 24 -8 0 -15 7 -15 15 0 10 10 15 30 15 28 0 30 -2 30 -40 l0 -40 -44
0 c-35 0 -48 5 -60 22 -22 31 -20 74 4 98 23 23 105 29 98 8z m202 -3 c0 -10
-10 -15 -31 -15 -20 0 -29 -4 -26 -12 2 -7 14 -13 27 -13 13 0 25 -6 27 -12 3
-9 -6 -13 -26 -13 -21 0 -31 -5 -31 -15 0 -10 10 -15 30 -15 20 0 30 -5 30
-15 0 -11 -12 -15 -45 -15 l-45 0 0 70 0 70 45 0 c33 0 45 -4 45 -15z m-1145
-216 c49 -67 198 -203 288 -263 87 -58 223 -126 252 -126 29 0 178 75 260 130
87 59 216 177 272 251 35 47 39 49 86 49 l48 0 -43 -53 c-140 -172 -234 -258
-382 -351 -105 -66 -223 -111 -267 -102 -47 9 -192 80 -271 132 -84 56 -231
194 -303 284 -74 94 -73 90 -18 90 44 0 50 -3 78 -41z m290 -224 c90 -60 219
-125 249 -125 31 0 196 84 275 140 41 29 110 87 154 129 70 66 75 69 37 23
-108 -126 -304 -263 -437 -302 -40 -12 -45 -11 -119 24 -42 20 -107 56 -144
81 -83 55 -229 182 -255 221 -10 16 22 -9 71 -55 49 -45 125 -107 169 -136z"/>
<path d="M1300 2280 c-196 -27 -460 -74 -460 -81 0 -7 32 -6 125 6 87 11 193
26 245 34 30 6 84 13 120 16 36 4 80 9 99 11 30 4 415 -40 453 -52 28 -8 50
-11 143 -19 161 -12 80 11 -170 50 -254 39 -440 51 -555 35z"/>
<path d="M1385 1944 c-51 -11 -135 -38 -135 -44 0 -9 103 -37 205 -55 44 -8
159 -18 255 -21 165 -5 174 -4 155 12 -37 30 -179 92 -239 103 -57 11 -199 13
-241 5z m280 -53 c89 -27 49 -36 -97 -22 -136 14 -181 26 -158 42 22 15 184 2
255 -20z"/>
<path d="M2304 1577 c-10 -28 1 -190 14 -195 9 -3 12 22 12 102 0 66 -4 106
-10 106 -6 0 -13 -6 -16 -13z"/>
<path d="M667 1550 c-3 -8 -8 -36 -11 -62 -5 -41 -3 -48 12 -48 14 0 17 8 14
48 -2 26 -4 54 -6 62 -3 13 -4 13 -9 0z"/>
<path d="M890 1551 c0 -30 4 -41 16 -41 11 0 14 9 12 37 -4 52 -28 56 -28 4z"/>
<path d="M1627 1540 c-17 -74 -16 -100 2 -100 16 0 17 7 14 53 -6 67 -9 78
-16 47z"/>
<path d="M1156 1225 c-10 -26 -7 -35 9 -35 17 0 19 18 6 38 -7 11 -10 10 -15
-3z"/>
<path d="M1360 1225 c0 -8 9 -15 20 -15 11 0 20 7 20 15 0 8 -9 15 -20 15 -11
0 -20 -7 -20 -15z"/>
<path d="M1588 1215 c-4 -19 -1 -25 12 -25 13 0 17 6 13 20 -8 31 -20 33 -25
5z"/>
<path d="M222 1256 c-25 -13 -26 -14 -12 -31 7 -8 28 -15 49 -15 20 0 53 -9
74 -20 33 -18 56 -20 231 -20 119 0 197 4 201 10 4 7 -67 10 -204 10 -134 0
-211 4 -211 10 0 6 78 10 214 10 185 0 214 2 212 15 -6 38 -20 40 -282 40
-140 0 -263 -4 -272 -9z m458 -19 c52 -2 -32 -4 -188 -5 -156 -1 -281 1 -279
6 5 6 230 6 467 -1z"/>
<path d="M2215 1261 c-23 -5 -31 -12 -33 -31 l-3 -25 221 3 c147 2 220 -1 220
-8 0 -6 -75 -10 -221 -10 -144 0 -218 -3 -214 -10 4 -6 85 -10 212 -10 182 0
208 2 231 18 15 10 47 20 72 21 56 4 77 18 56 39 -12 12 -59 15 -263 17 -136
1 -261 -1 -278 -4z m543 -26 c3 -3 -124 -5 -282 -5 -158 0 -285 3 -283 8 6 8
557 6 565 -3z"/>
</g>
</svg>
